<svg width="32" height="30" viewBox="0 0 32 30" fill="none" xmlns="http://www.w3.org/2000/svg">
<path d="M4 16.25H12V13.75H4V2.30751C4.00002 2.1989 4.03023 2.09218 4.08764 1.99785C4.14506 1.90352 4.22771 1.82485 4.32744 1.76958C4.42716 1.71432 4.54053 1.68437 4.65636 1.68269C4.7722 1.68101 4.8865 1.70766 4.988 1.76001L29.604 14.4525C29.7085 14.5065 29.7957 14.5857 29.8564 14.682C29.9171 14.7783 29.9491 14.8881 29.9491 15C29.9491 15.1119 29.9171 15.2217 29.8564 15.318C29.7957 15.4143 29.7085 15.4936 29.604 15.5475L4.988 28.24C4.8865 28.2924 4.7722 28.319 4.65636 28.3173C4.54053 28.3157 4.42716 28.2857 4.32744 28.2304C4.22771 28.1752 4.14506 28.0965 4.08764 28.0022C4.03023 27.9078 4.00002 27.8011 4 27.6925V16.25Z" fill="#6F9ACD"/>
</svg>
