<svg width="21" height="24" viewBox="0 0 21 24" fill="none" xmlns="http://www.w3.org/2000/svg">
<path d="M5.70165 8.35447C5.94181 5.88426 8.01814 4 10.5 4V4C12.9819 4 15.0582 5.88425 15.2984 8.35447L15.5948 11.4034C15.5985 11.4415 15.6003 11.4606 15.6023 11.4795C15.7046 12.4827 15.9957 13.4575 16.4602 14.3526C16.4689 14.3694 16.4778 14.3864 16.4957 14.4203L17.0263 15.4311C17.5391 16.4078 17.7955 16.8961 17.6786 17.2866C17.63 17.4491 17.5409 17.5965 17.4197 17.715C17.1282 18 16.5767 18 15.4736 18H5.52643C4.42333 18 3.87178 18 3.58031 17.715C3.45909 17.5965 3.37 17.4491 3.3214 17.2866C3.20455 16.8961 3.46093 16.4078 3.97368 15.4311L4.50435 14.4203C4.52215 14.3864 4.53106 14.3694 4.53981 14.3526C5.0043 13.4575 5.29539 12.4827 5.39774 11.4795C5.39966 11.4606 5.40152 11.4415 5.40522 11.4034L5.70165 8.35447Z" stroke="#343A40"/>
<path d="M7.96444 18.4059C8.114 19.1501 8.44356 19.8077 8.902 20.2767C9.36044 20.7458 9.92215 21 10.5 21C11.0779 21 11.6396 20.7458 12.098 20.2767C12.5564 19.8077 12.886 19.1501 13.0356 18.4059" stroke="#343A40" stroke-linecap="round"/>
</svg>
