<svg width="48" height="44" viewBox="0 0 48 44" fill="none" xmlns="http://www.w3.org/2000/svg">
<g filter="url(#filter0_d_2571_35727)">
<path fill-rule="evenodd" clip-rule="evenodd" d="M24 38C33.941 38 42 29.941 42 20C42 10.059 33.941 2 24 2C14.059 2 6 10.059 6 20C6 29.941 14.059 38 24 38ZM24 40C35.046 40 44 31.046 44 20C44 8.954 35.046 0 24 0C12.954 0 4 8.954 4 20C4 31.046 12.954 40 24 40Z" fill="black"/>
<path d="M12 31.6298C12 30.5968 12.772 29.7238 13.8 29.6098C21.515 28.7558 26.52 28.8328 34.218 29.6288C34.6024 29.6691 34.9667 29.8206 35.2665 30.0646C35.5663 30.3086 35.7885 30.6347 35.906 31.0029C36.0235 31.3711 36.0312 31.7656 35.9282 32.1382C35.8252 32.5107 35.616 32.8452 35.326 33.1008C26.241 41.0198 21.049 40.9108 12.64 33.1088C12.23 32.7288 12 32.1888 12 31.6308V31.6298Z" fill="black"/>
<path fill-rule="evenodd" clip-rule="evenodd" d="M34.115 30.6228C26.478 29.8328 21.545 29.7588 13.909 30.6038C13.6576 30.6331 13.4259 30.754 13.2582 30.9435C13.0905 31.133 12.9986 31.3777 13 31.6308C13 31.9168 13.119 32.1878 13.32 32.3758C17.488 36.2418 20.646 37.9888 23.733 37.9998C26.831 38.0108 30.159 36.2778 34.669 32.3478C34.8123 32.2203 34.9154 32.0538 34.9659 31.8688C35.0164 31.6837 35.012 31.488 34.9533 31.3054C34.8946 31.1228 34.7842 30.9612 34.6354 30.8401C34.4865 30.7191 34.3058 30.644 34.115 30.6238V30.6228ZM13.69 28.6158C21.486 27.7528 26.564 27.8308 34.322 28.6338C34.9003 28.6941 35.4485 28.9218 35.8994 29.2889C36.3503 29.656 36.6844 30.1466 36.8607 30.7007C37.0371 31.2547 37.0481 31.8482 36.8924 32.4084C36.7367 32.9686 36.421 33.4712 35.984 33.8548C31.409 37.8428 27.599 40.0148 23.727 39.9998C19.844 39.9858 16.202 37.7768 11.961 33.8418C11.6574 33.5589 11.4153 33.2165 11.2499 32.8359C11.0846 32.4553 10.9995 32.0447 11 31.6298C10.9985 30.8842 11.2722 30.1643 11.7686 29.608C12.2649 29.0516 12.9491 28.698 13.69 28.6148V28.6158Z" fill="black"/>
<path d="M32 16C32 18.1217 31.1571 20.1566 29.6569 21.6569C28.1566 23.1571 26.1217 24 24 24C21.8783 24 19.8434 23.1571 18.3431 21.6569C16.8429 20.1566 16 18.1217 16 16C16 13.8783 16.8429 11.8434 18.3431 10.3431C19.8434 8.84285 21.8783 8 24 8C26.1217 8 28.1566 8.84285 29.6569 10.3431C31.1571 11.8434 32 13.8783 32 16V16Z" fill="black"/>
<path fill-rule="evenodd" clip-rule="evenodd" d="M24 22C25.5913 22 27.1174 21.3679 28.2426 20.2426C29.3679 19.1174 30 17.5913 30 16C30 14.4087 29.3679 12.8826 28.2426 11.7574C27.1174 10.6321 25.5913 10 24 10C22.4087 10 20.8826 10.6321 19.7574 11.7574C18.6321 12.8826 18 14.4087 18 16C18 17.5913 18.6321 19.1174 19.7574 20.2426C20.8826 21.3679 22.4087 22 24 22V22ZM24 24C26.1217 24 28.1566 23.1571 29.6569 21.6569C31.1571 20.1566 32 18.1217 32 16C32 13.8783 31.1571 11.8434 29.6569 10.3431C28.1566 8.84285 26.1217 8 24 8C21.8783 8 19.8434 8.84285 18.3431 10.3431C16.8429 11.8434 16 13.8783 16 16C16 18.1217 16.8429 20.1566 18.3431 21.6569C19.8434 23.1571 21.8783 24 24 24V24Z" fill="black"/>
</g>
<defs>
<filter id="filter0_d_2571_35727" x="0" y="0" width="48" height="48" filterUnits="userSpaceOnUse" color-interpolation-filters="sRGB">
<feFlood flood-opacity="0" result="BackgroundImageFix"/>
<feColorMatrix in="SourceAlpha" type="matrix" values="0 0 0 0 0 0 0 0 0 0 0 0 0 0 0 0 0 0 127 0" result="hardAlpha"/>
<feOffset dy="4"/>
<feGaussianBlur stdDeviation="2"/>
<feComposite in2="hardAlpha" operator="out"/>
<feColorMatrix type="matrix" values="0 0 0 0 0 0 0 0 0 0 0 0 0 0 0 0 0 0 0.25 0"/>
<feBlend mode="normal" in2="BackgroundImageFix" result="effect1_dropShadow_2571_35727"/>
<feBlend mode="normal" in="SourceGraphic" in2="effect1_dropShadow_2571_35727" result="shape"/>
</filter>
</defs>
</svg>
