<svg width="520" height="93" viewBox="0 0 520 93" fill="none" xmlns="http://www.w3.org/2000/svg">
<path d="M15.5114 63.5231L17.7273 73.1253L45.7955 67.2162L50.2273 61.6765L46.5341 35.0855L42.4716 30.6537L9.60227 23.6367L3.32386 28.8071L0 91.5912L9.97159 91.9606L12.9261 34.7162L37.3011 39.8867L39.517 58.3526L15.5114 63.5231Z" fill="#B9B8F6"/>
<path fill-rule="evenodd" clip-rule="evenodd" d="M67.9545 33.9773L103.409 32.5L108.58 37.3012L109.687 77.5568L104.517 82.7273L65.3693 80.5114L60.5682 74.9716L63.1534 38.7784L67.9545 33.9773ZM98.9773 42.4716L72.7557 43.5796L71.2784 70.9091L99.7159 72.3864L98.9773 42.4716Z" fill="#B9B8F6"/>
<path d="M122.614 29.5451L132.585 29.1758V42.4712L156.96 31.0223L161.392 39.886L132.955 53.5508L134.062 85.3121L124.091 85.6814L122.614 29.5451Z" fill="#B9B8F6"/>
<path d="M186.506 26.2217L196.477 27.3297L195.739 36.5626L219.375 35.0853L220.114 45.0569L194.631 46.9035L192.045 73.1251L213.097 79.4035L210.511 88.6365L185.398 81.6194L181.705 76.449L184.29 47.6422L163.608 49.1194L162.869 39.1478L185.398 37.6706L186.506 26.2217Z" fill="#B9B8F6"/>
<path d="M264.432 17.7275L268.125 26.5911L255.199 32.1309L253.352 62.7843L271.818 64.2616L271.08 74.2332L252.614 72.3866L251.506 92.3298L241.534 91.9605L242.642 71.648L224.545 69.8014L225.653 60.1991L243.381 61.6764L245.597 28.807L248.551 24.3752L264.432 17.7275Z" fill="#B9B8F6"/>
<path fill-rule="evenodd" clip-rule="evenodd" d="M287.699 33.9773L323.153 32.5L328.693 37.3012L329.801 77.5568L324.261 82.7273L285.114 80.5114L280.682 75.3409L283.267 38.4091L287.699 33.9773ZM318.722 42.8409L292.869 43.5796L291.023 70.9091L319.46 72.3864L318.722 42.8409Z" fill="#B9B8F6"/>
<path d="M350.483 21.79L360.085 22.8979L351.222 86.79L341.25 85.682L350.483 21.79Z" fill="#B9B8F6"/>
<path d="M373.381 42.1025L382.983 43.2104L377.812 85.3127L368.21 84.2048L373.381 42.1025Z" fill="#B9B8F6"/>
<path d="M370.795 24.0061L380.028 21.4209L383.352 32.8697L373.75 35.455L370.795 24.0061Z" fill="#B9B8F6"/>
<path fill-rule="evenodd" clip-rule="evenodd" d="M395.909 36.1936L439.489 25.4834L445.767 29.9152L451.676 73.8641L459.062 76.08L456.477 85.3129L446.136 82.7277L444.29 80.5118L400.341 87.1595L394.432 81.2504L400.341 57.2447L405.142 53.1822H438.75L436.903 36.5629L398.494 45.7959L395.909 36.1936ZM440.227 63.1538H409.205L405.511 76.08L441.335 70.5402L440.227 63.1538Z" fill="#B9B8F6"/>
<path d="M470.881 44.318L475.682 39.8862L507.074 35.085L512.983 39.8862L514.83 81.6191L504.858 81.9885L503.381 45.7953L480.114 49.4885L475.682 80.5112L465.71 79.0339L470.881 44.318Z" fill="#B9B8F6"/>
<path d="M16.9887 53.9206L19.2046 63.5228L47.2727 57.6137L51.7046 52.074L48.0114 25.4831L43.9489 21.0512L11.0796 14.0342L4.80116 19.2046L1.47729 81.9887L11.4489 82.3581L14.4034 25.1137L38.7784 30.2842L40.9943 48.7501L16.9887 53.9206Z" fill="#DDE9BB"/>
<path fill-rule="evenodd" clip-rule="evenodd" d="M69.4318 24.3748L104.886 22.8975L110.057 27.6987L111.165 67.9543L105.994 73.1248L66.8466 70.9089L62.0455 65.3691L64.6307 29.1759L69.4318 24.3748ZM100.455 32.8691L74.233 33.9771L72.7557 61.3066L101.193 62.7839L100.455 32.8691Z" fill="#DDE9BB"/>
<path d="M124.091 19.9435L134.063 19.5742V32.8696L158.438 21.4208L162.869 30.2844L134.432 43.9492L135.54 75.7105L125.568 76.0798L124.091 19.9435Z" fill="#DDE9BB"/>
<path d="M187.983 16.6191L197.955 17.7271L197.216 26.96L220.852 25.4828L221.591 35.4543L196.108 37.3009L193.523 63.5225L214.574 69.8009L211.989 79.0339L186.875 72.0168L183.182 66.8464L185.767 38.0396L165.085 39.5168L164.347 29.5453L186.875 28.068L187.983 16.6191Z" fill="#DDE9BB"/>
<path d="M265.909 8.125L269.602 16.9886L256.676 22.5284L254.83 53.1818L273.295 54.6591L272.557 64.6307L254.091 62.7841L252.983 82.7273L243.011 82.358L244.119 62.0455L226.023 60.1989L227.131 50.5966L244.858 52.0739L247.074 19.2045L250.028 14.7727L265.909 8.125Z" fill="#DDE9BB"/>
<path fill-rule="evenodd" clip-rule="evenodd" d="M289.176 24.3748L324.631 22.8975L330.17 27.6987L331.278 67.9543L325.739 73.1248L286.591 70.9089L282.159 65.7384L284.744 28.8066L289.176 24.3748ZM320.199 33.2384L294.347 33.9771L292.5 61.3066L320.938 62.7839L320.199 33.2384Z" fill="#DDE9BB"/>
<path d="M351.96 12.1875L361.562 13.2955L352.699 77.1875L342.727 76.0795L351.96 12.1875Z" fill="#DDE9BB"/>
<path d="M374.858 32.5L384.46 33.608L379.29 75.7102L369.687 74.6023L374.858 32.5Z" fill="#DDE9BB"/>
<path d="M372.273 14.4036L381.506 11.8184L384.83 23.2672L375.227 25.8525L372.273 14.4036Z" fill="#DDE9BB"/>
<path fill-rule="evenodd" clip-rule="evenodd" d="M397.386 26.5911L440.966 15.8809L447.244 20.3127L453.153 64.2616L460.54 66.4775L457.955 75.7104L447.614 73.1252L445.767 70.9093L401.818 77.557L395.909 71.6479L401.818 47.6422L406.619 43.5797H440.227L438.381 26.9604L399.972 36.1934L397.386 26.5911ZM441.705 53.5513H410.682L406.989 66.4775L442.812 60.9377L441.705 53.5513Z" fill="#DDE9BB"/>
<path d="M472.358 34.7163L477.159 30.2845L508.551 25.4834L514.46 30.2845L516.307 72.0174L506.335 72.3868L504.858 36.1936L481.591 39.8868L477.159 70.9095L467.187 69.4322L472.358 34.7163Z" fill="#DDE9BB"/>
<path d="M20.6818 45.7956L22.8977 55.3978L50.9659 49.4887L55.3977 43.949L51.7046 17.3581L47.6421 12.9262L14.7727 5.90918L8.49433 11.0796L5.17047 73.8637L15.1421 74.2331L18.0966 16.9887L42.4716 22.1592L44.6875 40.6251L20.6818 45.7956Z" fill="#4F5256"/>
<path fill-rule="evenodd" clip-rule="evenodd" d="M73.125 16.2498L108.58 14.7725L113.75 19.5737L114.858 59.8293L109.688 64.9998L70.5398 62.7839L65.7386 57.2441L68.3239 21.0509L73.125 16.2498ZM104.148 24.7441L77.9261 25.8521L76.4489 53.1816L104.886 54.6589L104.148 24.7441Z" fill="#4F5256"/>
<path d="M127.784 11.8185L137.756 11.4492V24.7446L162.131 13.2958L166.563 22.1594L138.125 35.8242L139.233 67.5855L129.261 67.9548L127.784 11.8185Z" fill="#4F5256"/>
<path d="M191.676 8.49414L201.648 9.60209L200.909 18.835L224.545 17.3578L225.284 27.3293L199.801 29.1759L197.216 55.3975L218.267 61.6759L215.682 70.9089L190.568 63.8918L186.875 58.7214L189.46 29.9146L168.778 31.3918L168.04 21.4203L190.568 19.943L191.676 8.49414Z" fill="#4F5256"/>
<path d="M269.602 0L273.295 8.86364L260.369 14.4034L258.523 45.0568L276.989 46.5341L276.25 56.5057L257.784 54.6591L256.676 74.6023L246.705 74.233L247.813 53.9205L229.716 52.0739L230.824 42.4716L248.551 43.9489L250.767 11.0795L253.722 6.64773L269.602 0Z" fill="#4F5256"/>
<path fill-rule="evenodd" clip-rule="evenodd" d="M292.869 16.2498L328.324 14.7725L333.864 19.5737L334.972 59.8293L329.432 64.9998L290.284 62.7839L285.852 57.6134L288.437 20.6816L292.869 16.2498ZM323.892 25.1134L298.04 25.8521L296.193 53.1816L324.631 54.6589L323.892 25.1134Z" fill="#4F5256"/>
<path d="M355.653 4.0625L365.256 5.17045L356.392 69.0625L346.42 67.9545L355.653 4.0625Z" fill="#4F5256"/>
<path d="M378.551 24.375L388.153 25.483L382.983 67.5852L373.381 66.4773L378.551 24.375Z" fill="#4F5256"/>
<path d="M375.966 6.27859L385.199 3.69336L388.523 15.1422L378.92 17.7275L375.966 6.27859Z" fill="#4F5256"/>
<path fill-rule="evenodd" clip-rule="evenodd" d="M401.08 18.4661L444.659 7.75586L450.937 12.1877L456.847 56.1366L464.233 58.3525L461.648 67.5854L451.307 65.0002L449.46 62.7843L405.511 69.432L399.602 63.5229L405.511 39.5172L410.312 35.4547H443.92L442.074 18.8354L403.665 28.0684L401.08 18.4661ZM445.398 45.4263H414.375L410.682 58.3525L446.506 52.8127L445.398 45.4263Z" fill="#4F5256"/>
<path d="M476.051 26.5913L480.852 22.1595L512.244 17.3584L518.153 22.1595L520 63.8924L510.028 64.2618L508.551 28.0686L485.284 31.7618L480.852 62.7845L470.881 61.3072L476.051 26.5913Z" fill="#4F5256"/>
</svg>
