<svg width="22" height="22" viewBox="0 0 22 22" fill="none" xmlns="http://www.w3.org/2000/svg">
<path d="M12.9581 3.08099L13.4556 3.03124L13.4556 3.03124L12.9581 3.08099ZM12.8556 2.45883L12.3919 2.64592V2.64592L12.8556 2.45883ZM13.1548 4.1905L12.7198 4.43711L12.7198 4.43712L13.1548 4.1905ZM14.291 4.66114L14.4242 5.14308L14.291 4.66114ZM15.2146 4.01571L15.5313 4.40269L15.5377 4.39745L15.5439 4.392L15.2146 4.01571ZM15.2146 4.0157L14.898 3.62872L14.8916 3.63396L14.8854 3.63941L15.2146 4.0157ZM15.727 3.64821L15.9226 4.10837V4.10837L15.727 3.64821ZM16.5989 3.6917L16.8393 3.25329V3.25329L16.5989 3.6917ZM17.0722 4.10836L17.4257 3.7548V3.7548L17.0722 4.10836ZM17.8912 4.92737L17.5376 5.28098L17.5441 5.28729L17.8912 4.92737ZM17.8912 4.92739L18.2448 4.57378L18.2383 4.56747L17.8912 4.92739ZM18.3079 5.40062L17.8694 5.64101L17.8694 5.64102L18.3079 5.40062ZM18.3514 6.27257L18.8115 6.46814V6.46814L18.3514 6.27257ZM17.9839 6.78491L18.3698 7.10277L18.3708 7.10153L17.9839 6.78491ZM17.9838 6.78493L17.5979 6.46708L17.5969 6.46832L17.9838 6.78493ZM17.3384 7.7086L16.8565 7.57543V7.57543L17.3384 7.7086ZM17.809 8.84481L18.0557 8.40987L18.0557 8.40987L17.809 8.84481ZM18.9186 9.04154L18.8688 9.53906V9.53906L18.9186 9.04154ZM19.5408 9.14398L19.3537 9.60765V9.60765L19.5408 9.14398ZM20.1266 9.79127L19.6466 9.9313L19.6466 9.9313L20.1266 9.79127ZM20.1266 12.208L19.6466 12.068L19.6466 12.068L20.1266 12.208ZM19.5407 12.8554L19.7277 13.3191L19.7277 13.3191L19.5407 12.8554ZM18.9187 12.9578L18.8689 12.4603L18.8689 12.4603L18.9187 12.9578ZM17.8095 13.1544L17.563 12.7194H17.563L17.8095 13.1544ZM17.3388 14.2909L16.8569 14.4242V14.4242L17.3388 14.2909ZM17.984 15.2141L17.597 15.5307L17.6128 15.55L17.6304 15.5677L17.984 15.2141ZM17.984 15.2141L18.371 14.8975L18.3552 14.8782L18.3375 14.8606L17.984 15.2141ZM18.3513 15.7263L18.8115 15.5306L18.8115 15.5306L18.3513 15.7263ZM18.3078 16.5984L18.7462 16.8389L18.3078 16.5984ZM17.8914 17.0715L17.5378 16.7179L17.5378 16.7179L17.8914 17.0715ZM17.0722 17.8906L17.4258 18.2441L17.0722 17.8906ZM16.599 18.3072L16.3586 17.8688H16.3586L16.599 18.3072ZM15.727 18.3507L15.9226 17.8906L15.9226 17.8906L15.727 18.3507ZM15.2147 17.9832L15.5313 17.5963L15.5313 17.5963L15.2147 17.9832ZM14.291 17.3378L14.1579 17.8197L14.291 17.3378ZM13.1548 17.8084L13.5898 18.0551L13.5898 18.0551L13.1548 17.8084ZM12.9581 18.9181L12.4606 18.8684L12.9581 18.9181ZM12.8556 19.5406L13.3192 19.7278L13.3192 19.7278L12.8556 19.5406ZM12.2084 20.1263L12.3485 20.6063H12.3485L12.2084 20.1263ZM9.79152 20.1263L9.65149 20.6063H9.65149L9.79152 20.1263ZM9.14422 19.5405L9.6079 19.3534H9.6079L9.14422 19.5405ZM9.04179 18.9183L8.54427 18.9681L9.04179 18.9183ZM8.84505 17.8088L9.27999 17.5621L8.84505 17.8088ZM7.70886 17.3382L7.5757 16.8562H7.5757L7.70886 17.3382ZM6.78516 17.9836L7.09752 18.3741L7.10177 18.3706L6.78516 17.9836ZM6.78515 17.9836L6.47278 17.5932L6.46853 17.5967L6.78515 17.9836ZM6.27276 18.3512L6.07719 17.891H6.07719L6.27276 18.3512ZM5.40084 18.3077L5.64123 17.8692L5.64123 17.8692L5.40084 18.3077ZM4.92758 17.891L4.5665 18.237L4.57403 18.2446L4.92758 17.891ZM4.92756 17.891L5.28864 17.5449L5.28111 17.5374L4.92756 17.891ZM4.10857 17.072L4.46213 16.7184H4.46213L4.10857 17.072ZM3.6919 16.5987L3.25348 16.8391L3.6919 16.5987ZM3.64841 15.7268L4.10858 15.9224V15.9224L3.64841 15.7268ZM4.01592 15.2144L4.4029 15.531L4.40959 15.5229L4.41592 15.5144L4.01592 15.2144ZM4.01593 15.2144L3.62895 14.8978L3.62227 14.906L3.61593 14.9144L4.01593 15.2144ZM4.66138 14.2908L4.17944 14.1576L4.17944 14.1576L4.66138 14.2908ZM4.19074 13.1545L3.94412 13.5895H3.94412L4.19074 13.1545ZM3.08123 12.9578L3.13098 12.4603H3.13098L3.08123 12.9578ZM2.45908 12.8554L2.27199 13.3191H2.27199L2.45908 12.8554ZM1.87326 12.2081L1.39327 12.3481L1.39327 12.3481L1.87326 12.2081ZM1.83325 11.5788H2.33325H1.83325ZM1.83325 10.4207H1.33325H1.83325ZM1.87329 9.7912L1.39331 9.65113H1.39331L1.87329 9.7912ZM2.45899 9.144L2.64612 9.60767L2.64612 9.60767L2.45899 9.144ZM3.08134 9.04153L3.03159 8.54401H3.03159L3.08134 9.04153ZM4.19121 8.84472L4.43788 9.27963V9.27963L4.19121 8.84472ZM4.66176 7.70869L5.14372 7.57559L4.66176 7.70869ZM4.01609 6.78467L4.40308 6.46804L4.4002 6.46458L4.01609 6.78467ZM4.01609 6.78467L3.62909 7.1013L3.63198 7.10476L4.01609 6.78467ZM3.6484 6.27203L4.10859 6.07651V6.07651L3.6484 6.27203ZM3.69188 5.40033L4.13033 5.64066L4.13033 5.64066L3.69188 5.40033ZM4.10873 4.92684L3.75517 4.57329H3.75517L4.10873 4.92684ZM4.9276 4.10796L5.28116 4.46152L4.9276 4.10796ZM5.40088 3.69128L5.1605 3.25285L5.1605 3.25285L5.40088 3.69128ZM6.2728 3.64779L6.07723 4.10795L6.07723 4.10795L6.2728 3.64779ZM6.78527 4.01537L7.10189 3.62839L6.78527 4.01537ZM7.70874 4.66075L7.57551 5.14267V5.14267L7.70874 4.66075ZM8.84517 4.19002L8.41019 3.94346V3.94346L8.84517 4.19002ZM9.0418 3.08087L8.54428 3.03112V3.03112L9.0418 3.08087ZM9.14418 2.45892L8.68048 2.27188V2.27188L9.14418 2.45892ZM9.79162 1.87299L9.9316 2.353V2.353L9.79162 1.87299ZM12.2083 1.87302L12.3483 1.39303L12.3483 1.39303L12.2083 1.87302ZM13.4556 3.03124C13.4263 2.73852 13.4061 2.48697 13.3193 2.27174L12.3919 2.64592C12.412 2.69569 12.4245 2.77058 12.4605 3.13075L13.4556 3.03124ZM13.5897 3.94388C13.5832 3.93245 13.5604 3.88229 13.5342 3.71911C13.5087 3.56004 13.4871 3.34615 13.4556 3.03124L12.4605 3.13075C12.4908 3.43307 12.5155 3.68211 12.5468 3.87756C12.5775 4.06891 12.6222 4.26489 12.7198 4.43711L13.5897 3.94388ZM14.1578 4.1792C13.9369 4.24025 13.7028 4.14326 13.5897 3.94388L12.7198 4.43712C13.059 5.03526 13.7614 5.32622 14.4242 5.14308L14.1578 4.1792ZM14.898 3.62873C14.6531 3.82914 14.4866 3.9651 14.356 4.05953C14.2221 4.1564 14.1705 4.1757 14.1578 4.1792L14.4242 5.14308C14.615 5.09035 14.7851 4.98334 14.9422 4.86975C15.1026 4.75372 15.2961 4.59508 15.5313 4.40269L14.898 3.62873ZM14.8854 3.63941L14.8854 3.63942L15.5439 4.392L15.5439 4.39199L14.8854 3.63941ZM15.5314 3.18805C15.3178 3.27883 15.1257 3.44245 14.898 3.62872L15.5313 4.40268C15.8114 4.17349 15.8732 4.12937 15.9226 4.10837L15.5314 3.18805ZM16.8393 3.25329C16.4364 3.03233 15.9544 3.00828 15.5314 3.18805L15.9226 4.10837C16.0636 4.04845 16.2242 4.05646 16.3585 4.13012L16.8393 3.25329ZM17.4257 3.7548C17.2177 3.54679 17.0428 3.36487 16.8393 3.25329L16.3585 4.13012C16.4056 4.15592 16.4627 4.20597 16.7186 4.46191L17.4257 3.7548ZM18.2448 4.57381L17.4257 3.7548L16.7186 4.46191L17.5376 5.28092L18.2448 4.57381ZM18.2383 4.56747L18.2383 4.56745L17.5441 5.28729L17.5441 5.28731L18.2383 4.56747ZM18.7463 5.16023C18.6347 4.95673 18.4528 4.78184 18.2448 4.57383L17.5377 5.28094C17.7936 5.53687 17.8436 5.59396 17.8694 5.64101L18.7463 5.16023ZM18.8115 6.46814C18.9913 6.0452 18.9672 5.56319 18.7463 5.16023L17.8694 5.64102C17.9431 5.77534 17.9511 5.93601 17.8912 6.07699L18.8115 6.46814ZM18.3708 7.10153C18.5571 6.87386 18.7207 6.68174 18.8115 6.46814L17.8912 6.07699C17.8702 6.12638 17.8261 6.18817 17.5969 6.46829L18.3708 7.10153ZM18.3698 7.10279L18.3698 7.10276L17.5979 6.46706L17.5979 6.46708L18.3698 7.10279ZM17.8203 7.84176C17.8238 7.8291 17.8431 7.77746 17.94 7.64355C18.0344 7.51302 18.1704 7.3465 18.3708 7.10155L17.5969 6.46832C17.4045 6.70347 17.2458 6.89703 17.1298 7.05743C17.0162 7.21445 16.9092 7.38459 16.8565 7.57543L17.8203 7.84176ZM18.0557 8.40987C17.8563 8.29681 17.7593 8.06268 17.8203 7.84176L16.8565 7.57543C16.6733 8.2382 16.9643 8.9406 17.5624 9.27976L18.0557 8.40987ZM18.9683 8.54402C18.6534 8.51253 18.4395 8.49093 18.2804 8.4654C18.1172 8.43921 18.0671 8.41635 18.0557 8.40987L17.5624 9.27976C17.7346 9.37742 17.9306 9.42205 18.122 9.45276C18.3174 9.48413 18.5665 9.50882 18.8688 9.53906L18.9683 8.54402ZM19.7279 8.6803C19.5126 8.59345 19.2611 8.57329 18.9683 8.54402L18.8688 9.53906C19.229 9.57508 19.3039 9.58757 19.3537 9.60765L19.7279 8.6803ZM20.6066 9.65124C20.4779 9.21008 20.154 8.85226 19.7279 8.6803L19.3537 9.60765C19.4957 9.66497 19.6037 9.78425 19.6466 9.9313L20.6066 9.65124ZM20.6666 10.4206C20.6666 10.1264 20.6716 9.87405 20.6066 9.65124L19.6466 9.9313C19.6616 9.98283 19.6666 10.0586 19.6666 10.4206H20.6666ZM20.6666 11.5789V10.4206H19.6666V11.5789H20.6666ZM20.6066 12.348C20.6716 12.1252 20.6666 11.873 20.6666 11.5789H19.6666C19.6666 11.9408 19.6616 12.0165 19.6466 12.068L20.6066 12.348ZM19.7277 13.3191C20.154 13.1471 20.4779 12.7892 20.6066 12.348L19.6466 12.068C19.6037 12.2151 19.4957 12.3344 19.3536 12.3917L19.7277 13.3191ZM18.9684 13.4553C19.2611 13.4261 19.5126 13.4059 19.7277 13.3191L19.3536 12.3917C19.3039 12.4118 19.229 12.4243 18.8689 12.4603L18.9684 13.4553ZM18.0561 13.5894C18.0675 13.5829 18.1177 13.5601 18.2808 13.5339C18.4398 13.5084 18.6536 13.4868 18.9684 13.4553L18.8689 12.4603C18.5667 12.4905 18.3177 12.5152 18.1224 12.5465C17.9311 12.5772 17.7352 12.6218 17.563 12.7194L18.0561 13.5894ZM17.8207 14.1576C17.7596 13.9367 17.8566 13.7024 18.0561 13.5894L17.563 12.7194C16.9646 13.0586 16.6736 13.7612 16.8569 14.4242L17.8207 14.1576ZM18.371 14.8975C18.1706 14.6527 18.0347 14.4862 17.9403 14.3558C17.8435 14.2219 17.8242 14.1703 17.8207 14.1576L16.8569 14.4242C16.9096 14.6149 17.0166 14.785 17.1301 14.9419C17.2461 15.1022 17.4047 15.2957 17.597 15.5307L18.371 14.8975ZM18.3375 14.8606L18.3375 14.8606L17.6304 15.5677L17.6304 15.5677L18.3375 14.8606ZM18.8115 15.5306C18.7207 15.3171 18.5572 15.1251 18.371 14.8975L17.597 15.5308C17.8261 15.8108 17.8702 15.8725 17.8912 15.9219L18.8115 15.5306ZM18.7462 16.8389C18.9673 16.4358 18.9913 15.9537 18.8115 15.5306L17.8912 15.9219C17.9512 16.0629 17.9431 16.2236 17.8695 16.358L18.7462 16.8389ZM18.2449 17.425C18.4528 17.2171 18.6347 17.0423 18.7462 16.8389L17.8695 16.358C17.8437 16.405 17.7936 16.4621 17.5378 16.7179L18.2449 17.425ZM17.4258 18.2441L18.2449 17.425L17.5378 16.7179L16.7187 17.537L17.4258 18.2441ZM16.8394 18.7457C17.0429 18.6341 17.2178 18.4522 17.4258 18.2441L16.7187 17.537C16.4627 17.793 16.4057 17.843 16.3586 17.8688L16.8394 18.7457ZM15.5314 18.8109C15.9544 18.9907 16.4364 18.9666 16.8394 18.7457L16.3586 17.8688C16.2243 17.9425 16.0636 17.9505 15.9226 17.8906L15.5314 18.8109ZM14.8981 18.3702C15.1257 18.5565 15.3179 18.7201 15.5315 18.8109L15.9226 17.8906C15.8732 17.8696 15.8114 17.8255 15.5313 17.5963L14.8981 18.3702ZM14.1579 17.8197C14.1705 17.8232 14.2222 17.8425 14.3561 17.9394C14.4866 18.0338 14.6531 18.1698 14.8981 18.3702L15.5313 17.5963C15.2961 17.4039 15.1026 17.2452 14.9422 17.1292C14.7852 17.0156 14.615 16.9086 14.4242 16.8559L14.1579 17.8197ZM13.5898 18.0551C13.7028 17.8557 13.937 17.7587 14.1579 17.8197L14.4242 16.8559C13.7614 16.6727 13.059 16.9637 12.7199 17.5618L13.5898 18.0551ZM13.4556 18.9679C13.4871 18.6529 13.5087 18.439 13.5342 18.2799C13.5604 18.1166 13.5833 18.0665 13.5898 18.0551L12.7199 17.5618C12.6222 17.7341 12.5776 17.9301 12.5469 18.1214C12.5155 18.3169 12.4908 18.566 12.4606 18.8684L13.4556 18.9679ZM13.3192 19.7278C13.4061 19.5125 13.4263 19.2608 13.4556 18.9679L12.4606 18.8684C12.4245 19.2288 12.412 19.3037 12.3919 19.3535L13.3192 19.7278ZM12.3485 20.6063C12.7895 20.4776 13.1473 20.1538 13.3192 19.7278L12.3919 19.3535C12.3346 19.4955 12.2154 19.6034 12.0683 19.6463L12.3485 20.6063ZM11.5789 20.6663C11.8732 20.6663 12.1256 20.6713 12.3485 20.6063L12.0683 19.6463C12.0168 19.6614 11.941 19.6663 11.5789 19.6663V20.6663ZM10.4208 20.6663H11.5789V19.6663H10.4208V20.6663ZM9.65149 20.6063C9.8743 20.6713 10.1266 20.6663 10.4208 20.6663V19.6663C10.0588 19.6663 9.98307 19.6614 9.93154 19.6463L9.65149 20.6063ZM8.68055 19.7276C8.8525 20.1538 9.21033 20.4776 9.65149 20.6063L9.93155 19.6463C9.78449 19.6034 9.66522 19.4955 9.6079 19.3534L8.68055 19.7276ZM8.54427 18.9681C8.57354 19.2608 8.5937 19.5124 8.68055 19.7276L9.6079 19.3534C9.58781 19.3037 9.57532 19.2288 9.53931 18.8686L8.54427 18.9681ZM8.41011 18.0554C8.41659 18.0668 8.43945 18.117 8.46564 18.2802C8.49117 18.4393 8.51278 18.6532 8.54427 18.9681L9.53931 18.8686C9.50907 18.5663 9.48438 18.3172 9.45301 18.1217C9.4223 17.9304 9.37766 17.7344 9.27999 17.5621L8.41011 18.0554ZM7.84201 17.8201C8.06293 17.7591 8.29706 17.856 8.41011 18.0554L9.27999 17.5621C8.94084 16.964 8.23845 16.6731 7.5757 16.8562L7.84201 17.8201ZM7.10177 18.3706C7.34673 18.1702 7.51326 18.0342 7.6438 17.9398C7.77771 17.8429 7.82935 17.8236 7.84201 17.8201L7.5757 16.8562C7.38485 16.9089 7.2147 17.016 7.05767 17.1296C6.89727 17.2456 6.70371 17.4042 6.46854 17.5966L7.10177 18.3706ZM7.0975 18.3741L7.0975 18.3741L6.47281 17.5932L6.4728 17.5932L7.0975 18.3741ZM6.46833 18.8113C6.68194 18.7205 6.87407 18.5569 7.10177 18.3706L6.46853 17.5967C6.18838 17.8259 6.12659 17.87 6.07719 17.891L6.46833 18.8113ZM5.16045 18.7461C5.5634 18.967 6.0454 18.9911 6.46833 18.8113L6.07719 17.891C5.93621 17.9509 5.77555 17.9429 5.64123 17.8692L5.16045 18.7461ZM4.57403 18.2446C4.78204 18.4526 4.95694 18.6345 5.16046 18.7461L5.64123 17.8692C5.59417 17.8434 5.53708 17.7934 5.28113 17.5374L4.57403 18.2446ZM4.56657 18.2369L4.56658 18.2369L5.28857 17.545L5.28856 17.545L4.56657 18.2369ZM3.75502 17.4255L4.57401 18.2445L5.28111 17.5374L4.46213 16.7184L3.75502 17.4255ZM3.25348 16.8391C3.36507 17.0426 3.547 17.2175 3.75502 17.4255L4.46213 16.7184C4.20618 16.4625 4.15613 16.4054 4.13032 16.3583L3.25348 16.8391ZM3.18825 15.5312C3.00849 15.9542 3.03253 16.4362 3.25348 16.8391L4.13032 16.3583C4.05667 16.224 4.04866 16.0633 4.10858 15.9224L3.18825 15.5312ZM3.62894 14.8978C3.44266 15.1255 3.27903 15.3176 3.18825 15.5312L4.10858 15.9224C4.12957 15.873 4.17369 15.8112 4.4029 15.531L3.62894 14.8978ZM3.61593 14.9144L3.61592 14.9144L4.41592 15.5144L4.41593 15.5144L3.61593 14.9144ZM4.17944 14.1576C4.17594 14.1702 4.15664 14.2219 4.05977 14.3558C3.96533 14.4863 3.82936 14.6528 3.62895 14.8978L4.40291 15.531C4.59531 15.2959 4.75395 15.1023 4.86998 14.9419C4.98358 14.7849 5.09059 14.6148 5.14332 14.4239L4.17944 14.1576ZM3.94412 13.5895C4.1435 13.7025 4.24048 13.9367 4.17944 14.1576L5.14332 14.4239C5.32645 13.7612 5.0355 13.0587 4.43736 12.7196L3.94412 13.5895ZM3.03148 13.4553C3.34639 13.4868 3.56028 13.5084 3.71935 13.5339C3.88253 13.5601 3.93269 13.583 3.94412 13.5895L4.43736 12.7196C4.26513 12.6219 4.06916 12.5773 3.8778 12.5466C3.68235 12.5152 3.43331 12.4905 3.13098 12.4603L3.03148 13.4553ZM2.27199 13.3191C2.48722 13.4059 2.73876 13.4261 3.03148 13.4553L3.13098 12.4603C2.77083 12.4243 2.69594 12.4118 2.64616 12.3917L2.27199 13.3191ZM1.39327 12.3481C1.52197 12.7893 1.84581 13.1471 2.27199 13.3191L2.64616 12.3917C2.5041 12.3344 2.39616 12.2151 2.35326 12.068L1.39327 12.3481ZM1.33325 11.5788C1.33325 11.873 1.32828 12.1253 1.39327 12.3481L2.35326 12.068C2.33823 12.0165 2.33325 11.9408 2.33325 11.5788H1.33325ZM1.33325 10.4207L1.33325 11.5788H2.33325L2.33325 10.4207H1.33325ZM1.39331 9.65113C1.32827 9.874 1.33325 10.1264 1.33325 10.4207H2.33325C2.33325 10.0586 2.33823 9.9828 2.35327 9.93126L1.39331 9.65113ZM2.27186 8.68034C1.84578 8.8523 1.52202 9.21006 1.39331 9.65113L2.35327 9.93126C2.39618 9.78424 2.5041 9.66499 2.64612 9.60767L2.27186 8.68034ZM3.03159 8.54401C2.73878 8.57329 2.48715 8.59345 2.27186 8.68034L2.64612 9.60767C2.69591 9.58757 2.77082 9.57508 3.1311 9.53905L3.03159 8.54401ZM3.94453 8.40981C3.93309 8.41629 3.88292 8.43917 3.71969 8.46536C3.56056 8.4909 3.34661 8.51251 3.03159 8.54401L3.1311 9.53905C3.43352 9.50881 3.68264 9.48411 3.87816 9.45273C4.06957 9.422 4.26561 9.37735 4.43788 9.27963L3.94453 8.40981ZM4.1798 7.84179C4.2408 8.06267 4.14385 8.29675 3.94453 8.40981L4.43788 9.27963C5.03585 8.94047 5.32672 8.23824 5.14372 7.57559L4.1798 7.84179ZM3.62911 7.10129C3.8296 7.34634 3.96563 7.51292 4.06009 7.64351C4.157 7.77747 4.17631 7.82913 4.1798 7.84179L5.14372 7.57559C5.091 7.38468 4.98395 7.21447 4.87032 7.05739C4.75425 6.89694 4.59555 6.70331 4.40307 6.46806L3.62911 7.10129ZM3.63198 7.10476L3.63198 7.10477L4.4002 6.46458L4.4002 6.46458L3.63198 7.10476ZM3.18822 6.46755C3.27901 6.68126 3.44272 6.87349 3.62911 7.10129L4.40307 6.46805C4.17374 6.18776 4.12959 6.12594 4.10859 6.07651L3.18822 6.46755ZM3.25343 5.15999C3.0326 5.56286 3.00857 6.04471 3.18822 6.46755L4.10859 6.07651C4.04871 5.93557 4.05672 5.77495 4.13033 5.64066L3.25343 5.15999ZM3.75517 4.57329C3.54706 4.7814 3.36504 4.95637 3.25343 5.15999L4.13033 5.64066C4.15614 5.59357 4.20621 5.53646 4.46228 5.28039L3.75517 4.57329ZM4.57405 3.75441L3.75517 4.57329L4.46228 5.28039L5.28116 4.46152L4.57405 3.75441ZM5.1605 3.25285C4.95698 3.36444 4.78208 3.54638 4.57405 3.75441L5.28116 4.46152C5.53711 4.20556 5.59421 4.1555 5.64127 4.1297L5.1605 3.25285ZM6.46837 3.18762C6.04544 3.00788 5.56345 3.03191 5.1605 3.25285L5.64127 4.1297C5.77559 4.05605 5.93625 4.04804 6.07723 4.10795L6.46837 3.18762ZM7.10189 3.62839C6.87415 3.44207 6.68199 3.27841 6.46837 3.18762L6.07723 4.10795C6.12663 4.12895 6.18844 4.17309 6.46865 4.40235L7.10189 3.62839ZM7.84198 4.17882C7.82933 4.17533 7.7777 4.15602 7.64381 4.05915C7.51329 3.96473 7.3468 3.82877 7.10189 3.62839L6.46865 4.40235C6.70377 4.59473 6.8973 4.75334 7.05766 4.86935C7.21464 4.98292 7.38473 5.08993 7.57551 5.14267L7.84198 4.17882ZM8.41019 3.94346C8.29714 4.1429 8.06294 4.23991 7.84198 4.17882L7.57551 5.14267C8.2384 5.32593 8.941 5.03491 9.28015 4.43658L8.41019 3.94346ZM8.54428 3.03112C8.5128 3.34592 8.49121 3.55974 8.46569 3.71876C8.43952 3.88189 8.41667 3.93204 8.41019 3.94346L9.28015 4.43658C9.37775 4.2644 9.42237 4.06849 9.45306 3.8772C9.48441 3.6818 9.5091 3.43285 9.53932 3.13062L8.54428 3.03112ZM8.68048 2.27188C8.59369 2.48704 8.57354 2.7385 8.54428 3.03112L9.53932 3.13062C9.57532 2.77059 9.58781 2.69572 9.60788 2.64596L8.68048 2.27188ZM9.65165 1.39299C9.21036 1.52167 8.85244 1.84558 8.68048 2.27188L9.60788 2.64596C9.6652 2.50387 9.7845 2.3959 9.9316 2.353L9.65165 1.39299ZM10.4207 1.33301C10.1266 1.33301 9.87438 1.32804 9.65165 1.39299L9.9316 2.353C9.98311 2.33798 10.0588 2.33301 10.4207 2.33301V1.33301ZM11.579 1.33301H10.4207V2.33301H11.579V1.33301ZM12.3483 1.39303C12.1255 1.32803 11.8732 1.33301 11.579 1.33301V2.33301C11.941 2.33301 12.0168 2.33798 12.0683 2.35301L12.3483 1.39303ZM13.3193 2.27174C13.1473 1.84556 12.7895 1.52173 12.3483 1.39303L12.0683 2.35301C12.2153 2.39591 12.3346 2.50386 12.3919 2.64592L13.3193 2.27174ZM14.1666 10.9997C14.1666 12.7486 12.7488 14.1663 10.9999 14.1663V15.1663C13.3011 15.1663 15.1666 13.3009 15.1666 10.9997H14.1666ZM10.9999 7.83301C12.7488 7.83301 14.1666 9.25077 14.1666 10.9997H15.1666C15.1666 8.69849 13.3011 6.83301 10.9999 6.83301V7.83301ZM7.83325 10.9997C7.83325 9.25077 9.25102 7.83301 10.9999 7.83301V6.83301C8.69873 6.83301 6.83325 8.69849 6.83325 10.9997H7.83325ZM10.9999 14.1663C9.25102 14.1663 7.83325 12.7486 7.83325 10.9997H6.83325C6.83325 13.3009 8.69873 15.1663 10.9999 15.1663V14.1663Z" fill="#343A40"/>
</svg>
