<svg width="150" height="150" viewBox="0 0 150 150" fill="none" xmlns="http://www.w3.org/2000/svg">
<circle cx="75" cy="62.5" r="18.75" stroke="#909090" stroke-linecap="round"/>
<circle cx="75" cy="75" r="56.25" stroke="#909090"/>
<path d="M112.5 116.912C110.288 110.267 105.414 104.396 98.6339 100.208C91.8537 96.0199 83.5463 93.75 75 93.75C66.4538 93.75 58.1463 96.0199 51.3662 100.208C44.586 104.395 39.7119 110.267 37.5 116.912" stroke="#909090" stroke-linecap="round"/>
<circle cx="114.5" cy="112.5" r="17" fill="white" stroke="black"/>
<path d="M124.562 119.5C124.562 119.964 124.411 120.409 124.141 120.737C123.872 121.066 123.506 121.25 123.125 121.25H105.875C105.494 121.25 105.128 121.066 104.859 120.737C104.589 120.409 104.438 119.964 104.438 119.5V109C104.438 108.536 104.589 108.091 104.859 107.763C105.128 107.434 105.494 107.25 105.875 107.25H107.56C108.703 107.249 109.799 106.696 110.607 105.712L111.8 104.263C112.069 103.935 112.434 103.751 112.814 103.75H116.183C116.565 103.75 116.93 103.935 117.2 104.263L118.39 105.712C118.79 106.2 119.266 106.586 119.789 106.85C120.313 107.114 120.874 107.25 121.44 107.25H123.125C123.506 107.25 123.872 107.434 124.141 107.763C124.411 108.091 124.562 108.536 124.562 109V119.5ZM105.875 105.5C105.113 105.5 104.381 105.869 103.842 106.525C103.303 107.182 103 108.072 103 109V119.5C103 120.428 103.303 121.318 103.842 121.975C104.381 122.631 105.113 123 105.875 123H123.125C123.887 123 124.619 122.631 125.158 121.975C125.697 121.318 126 120.428 126 119.5V109C126 108.072 125.697 107.182 125.158 106.525C124.619 105.869 123.887 105.5 123.125 105.5H121.44C120.678 105.5 119.947 105.131 119.408 104.475L118.217 103.025C117.678 102.369 116.947 102 116.185 102H112.815C112.053 102 111.322 102.369 110.783 103.025L109.592 104.475C109.053 105.131 108.322 105.5 107.56 105.5H105.875Z" fill="black"/>
<path d="M114.5 117.75C113.547 117.75 112.633 117.289 111.959 116.469C111.285 115.648 110.906 114.535 110.906 113.375C110.906 112.215 111.285 111.102 111.959 110.281C112.633 109.461 113.547 109 114.5 109C115.453 109 116.367 109.461 117.041 110.281C117.715 111.102 118.094 112.215 118.094 113.375C118.094 114.535 117.715 115.648 117.041 116.469C116.367 117.289 115.453 117.75 114.5 117.75ZM114.5 119.5C115.834 119.5 117.114 118.855 118.058 117.706C119.001 116.557 119.531 114.999 119.531 113.375C119.531 111.751 119.001 110.193 118.058 109.044C117.114 107.895 115.834 107.25 114.5 107.25C113.166 107.25 111.886 107.895 110.942 109.044C109.999 110.193 109.469 111.751 109.469 113.375C109.469 114.999 109.999 116.557 110.942 117.706C111.886 118.855 113.166 119.5 114.5 119.5V119.5ZM107.312 109.875C107.312 110.107 107.237 110.33 107.102 110.494C106.967 110.658 106.784 110.75 106.594 110.75C106.403 110.75 106.22 110.658 106.086 110.494C105.951 110.33 105.875 110.107 105.875 109.875C105.875 109.643 105.951 109.42 106.086 109.256C106.22 109.092 106.403 109 106.594 109C106.784 109 106.967 109.092 107.102 109.256C107.237 109.42 107.312 109.643 107.312 109.875V109.875Z" fill="black"/>
</svg>
