<svg width="24" height="24" viewBox="0 0 24 24" fill="none" xmlns="http://www.w3.org/2000/svg">
<path d="M19.7837 4.88883L19.342 5.18397L19.342 5.18397L19.7837 4.88883ZM19.7837 15.9862L19.342 15.691L19.342 15.691L19.7837 15.9862ZM18.6112 17.1587L18.316 16.717L18.316 16.717L18.6112 17.1587ZM14.125 17.8736L14.1227 17.3423C13.8302 17.3436 13.5938 17.5811 13.5938 17.8736H14.125ZM14.125 17.8751L14.6002 18.1127C14.6371 18.0389 14.6563 17.9576 14.6563 17.8751H14.125ZM9.87504 17.8751H9.34379C9.34379 17.9576 9.36299 18.0389 9.39988 18.1127L9.87504 17.8751ZM9.87504 17.8736H10.4063C10.4063 17.5811 10.1699 17.3436 9.87736 17.3423L9.87504 17.8736ZM5.38883 17.1587L5.68397 16.717L5.68397 16.717L5.38883 17.1587ZM4.21625 15.9862L3.77454 16.2813L3.77454 16.2813L4.21625 15.9862ZM4.21625 4.88883L4.65797 5.18397L4.65797 5.18397L4.21625 4.88883ZM5.38883 3.71625L5.68397 4.15797L5.68397 4.15797L5.38883 3.71625ZM18.6112 3.71625L18.316 4.15797L18.316 4.15797L18.6112 3.71625ZM21.0313 10.4375C21.0313 8.95632 21.0319 7.80544 20.939 6.8922C20.8452 5.97008 20.6516 5.23149 20.2255 4.59368L19.342 5.18397C19.6321 5.61811 19.7967 6.16162 19.8819 6.99973C19.9681 7.84672 19.9687 8.9342 19.9687 10.4375H21.0313ZM20.2255 16.2813C20.6516 15.6435 20.8452 14.9049 20.939 13.9828C21.0319 13.0696 21.0313 11.9187 21.0313 10.4375H19.9687C19.9687 11.9408 19.9681 13.0283 19.8819 13.8753C19.7967 14.7134 19.6321 15.2569 19.342 15.691L20.2255 16.2813ZM18.9063 17.6005C19.4284 17.2516 19.8766 16.8034 20.2255 16.2813L19.342 15.691C19.0707 16.0971 18.7221 16.4457 18.316 16.717L18.9063 17.6005ZM14.1274 18.4048C15.2711 18.3998 16.1918 18.378 16.9494 18.2733C17.7155 18.1674 18.3492 17.9727 18.9063 17.6005L18.316 16.717C17.9367 16.9705 17.4736 17.1282 16.8039 17.2208C16.1257 17.3145 15.2715 17.3373 14.1227 17.3423L14.1274 18.4048ZM14.6563 17.8751V17.8736H13.5938V17.8751H14.6563ZM13.4255 20.462L14.6002 18.1127L13.6499 17.6375L12.4752 19.9868L13.4255 20.462ZM10.5745 20.462C11.1619 21.6367 12.8382 21.6367 13.4255 20.462L12.4752 19.9868C12.2794 20.3784 11.7207 20.3784 11.5249 19.9868L10.5745 20.462ZM9.39988 18.1127L10.5745 20.462L11.5249 19.9868L10.3502 17.6375L9.39988 18.1127ZM9.34379 17.8736V17.8751H10.4063V17.8736H9.34379ZM5.09368 17.6005C5.65079 17.9727 6.2845 18.1674 7.05064 18.2733C7.80824 18.378 8.72896 18.3998 9.87273 18.4048L9.87736 17.3423C8.72854 17.3373 7.87437 17.3145 7.19612 17.2208C6.52641 17.1282 6.06331 16.9705 5.68397 16.717L5.09368 17.6005ZM3.77454 16.2813C4.12337 16.8034 4.57161 17.2516 5.09368 17.6005L5.68397 16.717C5.27792 16.4457 4.92929 16.0971 4.65797 15.691L3.77454 16.2813ZM2.96875 10.4375C2.96875 11.9187 2.96811 13.0696 3.06101 13.9828C3.15481 14.9049 3.34836 15.6435 3.77454 16.2813L4.65797 15.691C4.36789 15.2569 4.20331 14.7134 4.11805 13.8753C4.03189 13.0283 4.03125 11.9408 4.03125 10.4375H2.96875ZM3.77454 4.59368C3.34836 5.23149 3.15481 5.97008 3.06101 6.8922C2.96811 7.80544 2.96875 8.95632 2.96875 10.4375H4.03125C4.03125 8.9342 4.03189 7.84672 4.11805 6.99973C4.20331 6.16162 4.36789 5.61811 4.65797 5.18397L3.77454 4.59368ZM5.09368 3.27454C4.57161 3.62337 4.12337 4.07161 3.77454 4.59368L4.65797 5.18397C4.92929 4.77792 5.27792 4.42929 5.68397 4.15797L5.09368 3.27454ZM10.9375 2.46875C9.45632 2.46875 8.30544 2.46811 7.3922 2.56101C6.47008 2.65481 5.73149 2.84836 5.09368 3.27454L5.68397 4.15797C6.11811 3.86789 6.66162 3.70331 7.49973 3.61805C8.34672 3.53189 9.4342 3.53125 10.9375 3.53125V2.46875ZM13.0625 2.46875H10.9375V3.53125H13.0625V2.46875ZM18.9063 3.27454C18.2685 2.84836 17.5299 2.65481 16.6078 2.56101C15.6946 2.46811 14.5437 2.46875 13.0625 2.46875V3.53125C14.5658 3.53125 15.6533 3.53189 16.5003 3.61805C17.3384 3.70331 17.8819 3.86789 18.316 4.15797L18.9063 3.27454ZM20.2255 4.59368C19.8766 4.07161 19.4284 3.62337 18.9063 3.27454L18.316 4.15797C18.7221 4.42929 19.0707 4.77792 19.342 5.18397L20.2255 4.59368Z" fill="#343A40"/>
<circle cx="16.25" cy="10.4375" r="1.0625" fill="#343A40"/>
<circle cx="12" cy="10.4375" r="1.0625" fill="#343A40"/>
<circle cx="7.75" cy="10.4375" r="1.0625" fill="#343A40"/>
</svg>
