<svg width="24" height="24" viewBox="0 0 24 24" fill="none" xmlns="http://www.w3.org/2000/svg">
<path fill-rule="evenodd" clip-rule="evenodd" d="M2.5 12C2.5 6.75329 6.75329 2.5 12 2.5C17.2467 2.5 21.5 6.75329 21.5 12C21.5 14.6973 20.3759 17.1321 18.5705 18.8614C18.0557 18.0505 17.3485 17.3478 16.5015 16.7978C15.1947 15.9494 13.6126 15.5 12 15.5C10.3874 15.5 8.80526 15.9494 7.49849 16.7978C6.6515 17.3478 5.94433 18.0505 5.42949 18.8614C3.62415 17.1321 2.5 14.6973 2.5 12ZM15.4124 18.4753C16.0946 18.9182 16.6237 19.4759 16.9782 20.0927C15.5306 20.9852 13.8254 21.5 12 21.5C10.1746 21.5 8.46941 20.9852 7.02177 20.0927C7.37634 19.4759 7.90537 18.9182 8.58761 18.4753C9.55121 17.8496 10.7508 17.5 12 17.5C13.2492 17.5 14.4488 17.8496 15.4124 18.4753ZM10.15 9.15C10.15 8.12827 10.9783 7.3 12 7.3C13.0217 7.3 13.85 8.12827 13.85 9.15C13.85 10.1717 13.0217 11 12 11C10.9783 11 10.15 10.1717 10.15 9.15ZM12 5.3C9.8737 5.3 8.15 7.0237 8.15 9.15C8.15 11.2763 9.8737 13 12 13C14.1263 13 15.85 11.2763 15.85 9.15C15.85 7.0237 14.1263 5.3 12 5.3Z" fill="#5E5D8B"/>
</svg>
