<svg width="32" height="32" viewBox="0 0 32 32" fill="none" xmlns="http://www.w3.org/2000/svg">
<path d="M13.6529 4.49806L9.41598 3.7919C6.40044 3.28931 4.89267 3.03802 3.86541 3.80919C3.77123 3.8799 3.68129 3.95609 3.59606 4.03737C2.6665 4.92387 2.6665 6.45243 2.6665 9.50957V22.7549C2.6665 25.5607 2.6665 26.9635 3.46009 27.8249C3.62771 28.0069 3.8172 28.1674 4.02423 28.3028C5.00439 28.944 6.38816 28.7134 9.1557 28.2521L13.6529 27.5026C16.0474 27.1035 17.2446 26.904 17.9556 26.0647C18.6665 25.2255 18.6665 24.0117 18.6665 21.5842V10.4164C18.6665 7.98891 18.6665 6.77515 17.9556 5.93592C17.2446 5.09668 16.0474 4.89714 13.6529 4.49806Z" fill="#7E869E" fill-opacity="0.25"/>
<path d="M13.7022 4.20214L9.4653 3.49599L9.442 3.4921C7.95395 3.24409 6.80719 3.05296 5.90503 3.02305C4.99111 2.99275 4.27711 3.125 3.6853 3.56927C3.5817 3.64705 3.48277 3.73086 3.38902 3.82027C2.8535 4.33098 2.60567 5.01353 2.48531 5.91999C2.3665 6.81479 2.3665 7.97737 2.3665 9.48594L2.3665 9.50957V22.7549V22.7766C2.3665 24.1611 2.3665 25.2282 2.46793 26.0556C2.5706 26.893 2.78168 27.5313 3.23944 28.0282C3.42383 28.2284 3.63227 28.4049 3.86 28.5539C4.42539 28.9237 5.08975 29.027 5.93264 28.9906C6.76539 28.9547 7.81797 28.7792 9.18369 28.5516L9.20502 28.548L13.7022 27.7985L13.7231 27.795C14.9027 27.5984 15.8157 27.4463 16.5212 27.2363C17.2388 27.0226 17.7771 26.7395 18.1845 26.2586C18.5918 25.7778 18.7826 25.2002 18.8753 24.4573C18.9665 23.7269 18.9665 22.8012 18.9665 21.6055V21.5842V10.4164V10.3952C18.9665 9.1994 18.9665 8.27374 18.8753 7.5434C18.7826 6.80042 18.5918 6.22289 18.1845 5.742C17.7771 5.26112 17.2388 4.97804 16.5212 4.7644C15.8157 4.55439 14.9027 4.40221 13.7232 4.20563L13.7022 4.20214Z" stroke="#7E869E" stroke-opacity="0.25" stroke-width="0.6"/>
<path d="M29.3335 15.9997L29.802 15.6249L30.1019 15.9997L29.802 16.3745L29.3335 15.9997ZM17.3335 16.5997C17.0021 16.5997 16.7335 16.331 16.7335 15.9997C16.7335 15.6683 17.0021 15.3997 17.3335 15.3997V16.5997ZM24.4687 8.95819L29.802 15.6249L28.865 16.3745L23.5316 9.70782L24.4687 8.95819ZM29.802 16.3745L24.4687 23.0412L23.5316 22.2915L28.865 15.6249L29.802 16.3745ZM29.3335 16.5997H17.3335V15.3997H29.3335V16.5997Z" fill="#343A40"/>
<path d="M18.1925 26.2655L18.6504 26.6533L18.1925 26.2655ZM9.6529 28.1693L9.75154 28.7611L9.6529 28.1693ZM3.72738 28.0813L3.33955 28.5392L3.72738 28.0813ZM18.1925 5.73516L17.7347 6.12299L18.1925 5.73516ZM15.2255 5.36843L9.55426 4.42323L9.75154 3.23955L15.4227 4.18476L15.2255 5.36843ZM3.2665 9.74975V22.2509H2.0665V9.74975H3.2665ZM9.55426 27.5774L15.2255 26.6322L15.4227 27.8159L9.75154 28.7611L9.55426 27.5774ZM18.0665 10.8429V8.72217H19.2665V10.8429H18.0665ZM18.0665 23.2785V21.4216H19.2665V23.2785H18.0665ZM15.2255 26.6322C16.0388 26.4967 16.5939 26.403 17.008 26.2798C17.4061 26.1612 17.6016 26.0349 17.7347 25.8777L18.6504 26.6533C18.3096 27.0556 17.869 27.2755 17.3504 27.4299C16.8479 27.5795 16.2057 27.6854 15.4227 27.8159L15.2255 26.6322ZM19.2665 23.2785C19.2665 24.0722 19.2676 24.7231 19.2026 25.2434C19.1356 25.7803 18.9911 26.251 18.6504 26.6533L17.7347 25.8777C17.8679 25.7205 17.9604 25.5069 18.0119 25.0947C18.0654 24.666 18.0665 24.1031 18.0665 23.2785H19.2665ZM3.2665 22.2509C3.2665 23.9132 3.26794 25.0955 3.39316 25.9777C3.51603 26.8434 3.74468 27.3096 4.1152 27.6235L3.33955 28.5392C2.6492 27.9543 2.34742 27.1493 2.20507 26.1464C2.06507 25.16 2.0665 23.8765 2.0665 22.2509H3.2665ZM9.75154 28.7611C8.14807 29.0283 6.88222 29.2408 5.8863 29.2648C4.8736 29.2893 4.0299 29.124 3.33955 28.5392L4.1152 27.6235C4.48573 27.9374 4.98324 28.0863 5.85731 28.0652C6.74815 28.0437 7.91462 27.8507 9.55426 27.5774L9.75154 28.7611ZM9.55426 4.42323C7.91463 4.14996 6.74815 3.957 5.85731 3.93547C4.98324 3.91436 4.48573 4.06324 4.1152 4.37713L3.33955 3.4615C4.0299 2.87669 4.8736 2.71136 5.8863 2.73582C6.88222 2.75988 8.14808 2.97231 9.75154 3.23955L9.55426 4.42323ZM2.0665 9.74975C2.0665 8.12418 2.06507 6.84062 2.20507 5.85429C2.34742 4.85135 2.6492 4.04631 3.33955 3.4615L4.1152 4.37713C3.74468 4.69101 3.51603 5.15727 3.39316 6.02293C3.26794 6.90518 3.2665 8.0875 3.2665 9.74975H2.0665ZM15.4227 4.18476C16.2057 4.31525 16.8479 4.42117 17.3504 4.57078C17.869 4.72517 18.3096 4.94506 18.6504 5.34734L17.7347 6.12299C17.6016 5.96578 17.4061 5.83941 17.008 5.72089C16.5939 5.5976 16.0388 5.50399 15.2255 5.36843L15.4227 4.18476ZM18.0665 8.72217C18.0665 7.89759 18.0654 7.33469 18.0119 6.90593C17.9604 6.49379 17.8679 6.2802 17.7347 6.12299L18.6504 5.34734C18.9911 5.74962 19.1356 6.22036 19.2026 6.75726C19.2676 7.27754 19.2665 7.9284 19.2665 8.72217H18.0665Z" fill="#343A40"/>
</svg>
