<svg width="24" height="24" viewBox="0 0 24 24" fill="none" xmlns="http://www.w3.org/2000/svg">
<path fill-rule="evenodd" clip-rule="evenodd" d="M4.45237 8.12657C4.12744 8.83304 4.12744 9.63675 4.12744 11.2442V16.2643C4.12744 18.4966 4.12744 19.6128 4.82094 20.3063C5.45023 20.9356 6.42755 20.9939 8.27105 20.9992V15.0805C8.27105 13.7729 9.33114 12.7128 10.6388 12.7128H14.1904C15.4981 12.7128 16.5582 13.7729 16.5582 15.0805V20.9992C18.4017 20.9938 19.379 20.9356 20.0082 20.3063C20.7017 19.6128 20.7017 18.4966 20.7017 16.2643V11.2442C20.7017 9.63675 20.7017 8.83304 20.3768 8.12657C20.0519 7.42011 19.4417 6.89706 18.2212 5.85096L17.0373 4.83621C14.8314 2.9454 13.7284 2 12.4146 2C11.1008 2 9.99779 2.9454 7.79184 4.83621L6.60797 5.85096C5.38752 6.89706 4.7773 7.42011 4.45237 8.12657ZM14.1904 20.9998V15.0805H10.6388V20.9998H14.1904Z" fill="#5E5D8B"/>
</svg>
