<svg width="19" height="19" viewBox="0 0 19 19" fill="none" xmlns="http://www.w3.org/2000/svg">
<g clip-path="url(#clip0_428_25269)">
<path d="M14.7118 12.5265C14.2879 12.5266 13.8697 12.6242 13.4895 12.8117C13.1093 12.9992 12.7774 13.2717 12.5193 13.6081L6.55002 10.2201C6.75059 9.63817 6.75059 9.00581 6.55002 8.42384L12.5193 5.03591C12.936 5.5765 13.5379 5.9439 14.2091 6.06741C14.8804 6.19091 15.5736 6.0618 16.1554 5.70492C16.7372 5.34804 17.1665 4.78859 17.3606 4.13425C17.5547 3.4799 17.5 2.77688 17.2069 2.16046C16.9138 1.54404 16.4032 1.05779 15.7731 0.795258C15.1431 0.53273 14.4383 0.512478 13.7942 0.738401C13.1501 0.964323 12.6124 1.42046 12.2844 2.01903C11.9565 2.6176 11.8614 3.31632 12.0177 3.98074L5.94665 7.42642C5.56676 7.02229 5.07419 6.74163 4.53285 6.62084C3.9915 6.50006 3.42635 6.54472 2.91069 6.74903C2.39504 6.95335 1.95267 7.30789 1.64096 7.76668C1.32926 8.22547 1.1626 8.76733 1.1626 9.32199C1.1626 9.87664 1.32926 10.4185 1.64096 10.8773C1.95267 11.3361 2.39504 11.6906 2.91069 11.8949C3.42635 12.0993 3.9915 12.1439 4.53285 12.0231C5.07419 11.9023 5.56676 11.6217 5.94665 11.2175L12.0177 14.6633C11.8868 15.2226 11.9332 15.8088 12.1505 16.3405C12.3678 16.8723 12.7452 17.3233 13.2304 17.6308C13.7155 17.9384 14.2844 18.0874 14.858 18.0572C15.4316 18.0269 15.9816 17.8188 16.4317 17.4619C16.8818 17.1049 17.2096 16.6167 17.3697 16.0651C17.5298 15.5134 17.5143 14.9256 17.3253 14.3831C17.1362 13.8407 16.7831 13.3705 16.3148 13.0378C15.8465 12.7052 15.2863 12.5265 14.7118 12.5265V12.5265ZM14.7118 1.7476C15.0287 1.7476 15.3385 1.84158 15.602 2.01764C15.8655 2.1937 16.0708 2.44394 16.1921 2.73671C16.3134 3.02949 16.3451 3.35165 16.2833 3.66247C16.2215 3.97328 16.0689 4.25877 15.8448 4.48286C15.6207 4.70694 15.3352 4.85954 15.0244 4.92136C14.7136 4.98319 14.3914 4.95146 14.0987 4.83018C13.8059 4.70891 13.5556 4.50354 13.3796 4.24005C13.2035 3.97656 13.1095 3.66678 13.1095 3.34988C13.11 2.92507 13.279 2.5178 13.5794 2.21742C13.8797 1.91704 14.287 1.74808 14.7118 1.7476V1.7476ZM3.93289 10.9243C3.61599 10.9243 3.3062 10.8303 3.04271 10.6542C2.77922 10.4782 2.57385 10.2279 2.45258 9.93515C2.33131 9.64237 2.29958 9.32021 2.3614 9.0094C2.42323 8.69859 2.57583 8.41309 2.79991 8.18901C3.02399 7.96492 3.30949 7.81232 3.6203 7.7505C3.93111 7.68868 4.25327 7.72041 4.54605 7.84168C4.83883 7.96295 5.08907 8.16832 5.26513 8.43181C5.44119 8.6953 5.53516 9.00509 5.53516 9.32199C5.53469 9.74679 5.36573 10.1541 5.06534 10.4544C4.76496 10.7548 4.35769 10.9238 3.93289 10.9243V10.9243ZM14.7118 16.8964C14.3949 16.8964 14.0851 16.8024 13.8216 16.6263C13.5581 16.4503 13.3528 16.2 13.2315 15.9073C13.1102 15.6145 13.0785 15.2923 13.1403 14.9815C13.2022 14.6707 13.3548 14.3852 13.5788 14.1611C13.8029 13.937 14.0884 13.7844 14.3992 13.7226C14.71 13.6608 15.0322 13.6925 15.325 13.8138C15.6178 13.9351 15.868 14.1404 16.0441 14.4039C16.2201 14.6674 16.3141 14.9772 16.3141 15.2941C16.3136 15.7189 16.1447 16.1262 15.8443 16.4266C15.5439 16.7269 15.1366 16.8959 14.7118 16.8964V16.8964Z" fill="#343A40"/>
</g>
<defs>
<clipPath id="clip0_428_25269">
<rect width="18.6446" height="18.6446" fill="white"/>
</clipPath>
</defs>
</svg>
