<svg width="24" height="24" viewBox="0 0 24 24" fill="none" xmlns="http://www.w3.org/2000/svg">
<path d="M5 11.3661C5 9.91138 5 9.18401 5.29407 8.54464C5.58813 7.90528 6.14039 7.43191 7.24491 6.48518L8.31634 5.56681C10.3128 3.8556 11.311 3 12.5 3C13.689 3 14.6872 3.8556 16.6837 5.56681L17.7551 6.48518C18.8596 7.43191 19.4119 7.90528 19.7059 8.54464C20 9.18401 20 9.91138 20 11.3661V15.9094C20 17.9297 20 18.9399 19.3724 19.5675C18.7447 20.1951 17.7346 20.1951 15.7143 20.1951H9.28571C7.26541 20.1951 6.25526 20.1951 5.62763 19.5675C5 18.9399 5 17.9297 5 15.9094V11.3661Z" stroke="#343A40" stroke-width="1.07143"/>
<path d="M15.1784 20.1952V14.838C15.1784 14.2463 14.6987 13.7666 14.107 13.7666H10.8927C10.301 13.7666 9.82129 14.2463 9.82129 14.838V20.1952" stroke="#343A40" stroke-width="1.07143" stroke-linecap="round" stroke-linejoin="round"/>
</svg>
