<svg width="24" height="20" viewBox="0 0 24 20" fill="none" xmlns="http://www.w3.org/2000/svg">
<path d="M4 0C2.93913 0 1.92172 0.421427 1.17157 1.17157C0.421427 1.92172 0 2.93913 0 4V4.402L12 10.864L24 4.404V4C24 2.93913 23.5786 1.92172 22.8284 1.17157C22.0783 0.421427 21.0609 0 20 0H4Z" fill="#909090"/>
<path d="M24 6.67383L12.474 12.8798C12.3283 12.9583 12.1655 12.9993 12 12.9993C11.8345 12.9993 11.6717 12.9583 11.526 12.8798L0 6.67383V15.9998C0 17.0607 0.421427 18.0781 1.17157 18.8283C1.92172 19.5784 2.93913 19.9998 4 19.9998H20C21.0609 19.9998 22.0783 19.5784 22.8284 18.8283C23.5786 18.0781 24 17.0607 24 15.9998V6.67383Z" fill="#909090"/>
</svg>
