<svg width="24" height="24" viewBox="0 0 24 24" fill="none" xmlns="http://www.w3.org/2000/svg">
<path fill-rule="evenodd" clip-rule="evenodd" d="M21.5 10.875C21.5 7.71496 21.5 6.13494 20.7416 4.99993C20.4133 4.50858 19.9914 4.0867 19.5001 3.75839C18.3651 3 16.785 3 13.625 3H11.375C8.21496 3 6.63494 3 5.49993 3.75839C5.00858 4.0867 4.5867 4.50858 4.25839 4.99993C3.5 6.13494 3.5 7.71496 3.5 10.875C3.5 14.035 3.5 15.6151 4.25839 16.7501C4.5867 17.2414 5.00858 17.6633 5.49993 17.9916C6.49145 18.6541 7.82259 18.7379 10.25 18.7485V18.7501L11.4938 21.2376C11.9084 22.0668 13.0916 22.0668 13.5062 21.2376L14.75 18.7501V18.7485C17.1774 18.7379 18.5085 18.6541 19.5001 17.9916C19.9914 17.6633 20.4133 17.2414 20.7416 16.7501C21.5 15.6151 21.5 14.035 21.5 10.875ZM8.25244 11.575C8.83924 11.575 9.31494 11.0993 9.31494 10.5125C9.31494 9.9257 8.83924 9.45 8.25244 9.45C7.66564 9.45 7.18994 9.9257 7.18994 10.5125C7.18994 11.0993 7.66564 11.575 8.25244 11.575ZM13.5649 10.5125C13.5649 11.0993 13.0892 11.575 12.5024 11.575C11.9156 11.575 11.4399 11.0993 11.4399 10.5125C11.4399 9.9257 11.9156 9.45 12.5024 9.45C13.0892 9.45 13.5649 9.9257 13.5649 10.5125ZM17.8149 10.5125C17.8149 11.0993 17.3392 11.575 16.7524 11.575C16.1656 11.575 15.6899 11.0993 15.6899 10.5125C15.6899 9.9257 16.1656 9.45 16.7524 9.45C17.3392 9.45 17.8149 9.9257 17.8149 10.5125Z" fill="#5E5D8B"/>
</svg>
